<svg xmlns="http://www.w3.org/2000/svg" viewBox="0 0 48.69 43.2"><defs><style>.cls-1{fill:#f4f7fa;}.cls-2{fill:#333;}</style></defs><g id="Layer_2" data-name="Layer 2"><g id="Layer_1-2" data-name="Layer 1"><ellipse class="cls-1" cx="24.35" cy="21.6" rx="24.35" ry="21.6"/><path class="cls-2" d="M28.12,19.41v-4c.89-.25,1.56-.64,1.56-1.28,0-1.57-4.16-1.69-5.44-1.69s-5.44.12-5.44,1.7c0,.63.68,1,1.57,1.27v4a8.72,8.72,0,0,0-5.88,7.94c0,4.77,4.38,8.65,9.75,8.65S34,32.12,34,27.35A8.73,8.73,0,0,0,28.12,19.41Zm-3.88-5.66a13.39,13.39,0,0,1,3.56.39,14,14,0,0,1-3.56.38,13.87,13.87,0,0,1-3.55-.38A13.3,13.3,0,0,1,24.24,13.75Zm-2.88,6.72a.68.68,0,0,0,.49-.62V15.7a22,22,0,0,0,2.39.13,22.2,22.2,0,0,0,2.4-.13v4.15a.67.67,0,0,0,.48.62,7.55,7.55,0,0,1,5.38,6.32A13.79,13.79,0,0,1,27.17,26c-2.88-.81-6.12-1.71-11.08.07A7.64,7.64,0,0,1,21.36,20.47Zm2.88,14.22c-4.47,0-8.12-3.17-8.26-7.11,4.85-1.95,7.85-1.11,10.74-.29a17.83,17.83,0,0,0,4.85.86c.3,0,.6,0,.91,0C32,31.81,28.52,34.69,24.24,34.69ZM22,10.47a.74.74,0,1,1,.74.66A.7.7,0,0,1,22,10.47Zm-.74,12.44a.75.75,0,1,1,.74.65A.7.7,0,0,1,21.29,22.91ZM25,21a.7.7,0,0,1,.74.65.74.74,0,0,1-1.48,0A.7.7,0,0,1,25,21Zm-1.47-2.62a.74.74,0,1,1,.73.65A.69.69,0,0,1,23.51,18.33Zm8.11-3.93a2.45,2.45,0,0,0,2.58-2.29,2.6,2.6,0,0,0-5.16,0A2.45,2.45,0,0,0,31.62,14.4Zm0-3.27a1.05,1.05,0,0,1,1.11,1,1.12,1.12,0,0,1-2.22,0A1.05,1.05,0,0,1,31.62,11.13Zm-5.16,0a2.1,2.1,0,0,0,2.21-2,2.23,2.23,0,0,0-4.43,0A2.11,2.11,0,0,0,26.46,11.13Zm0-2.62a.66.66,0,1,1-.74.65A.69.69,0,0,1,26.46,8.51Z"/></g></g></svg>