<svg xmlns="http://www.w3.org/2000/svg" viewBox="0 0 48.69 43.2"><defs><style>.cls-1{fill:#f4f7fa;}.cls-2{fill:#333;}</style></defs><g id="Layer_2" data-name="Layer 2"><g id="Layer_1-2" data-name="Layer 1"><ellipse class="cls-1" cx="24.35" cy="21.6" rx="24.35" ry="21.6"/><path class="cls-2" d="M34.71,18.71H30a.35.35,0,0,0-.36.32v4a.35.35,0,0,0,.36.33h7a.35.35,0,0,0,.36-.33.23.23,0,0,0,0-.14l-2.24-4A.37.37,0,0,0,34.71,18.71Zm-4.39,4V19.35h4.17l1.9,3.37Z"/><path class="cls-2" d="M14.13,22.36H16v1.69a.34.34,0,0,0,.36.32h2.26a.34.34,0,0,0,.36-.32V22.36h1.9a.34.34,0,0,0,.36-.32V20a.34.34,0,0,0-.36-.32H19V18a.34.34,0,0,0-.36-.32H16.39A.34.34,0,0,0,16,18v1.69h-1.9a.34.34,0,0,0-.36.32v2a.34.34,0,0,0,.36.32Zm.36-2h1.9a.34.34,0,0,0,.36-.32V18.35h1.54V20a.34.34,0,0,0,.36.32h1.9v1.36h-1.9a.34.34,0,0,0-.36.32v1.69H16.75V22a.34.34,0,0,0-.36-.32h-1.9Z"/><rect class="cls-2" x="32.42" y="11.81" width="0.72" height="1.94"/><polygon class="cls-2" points="30.18 12.52 30.8 12.2 31.89 13.87 31.27 14.2 30.18 12.52"/><polygon class="cls-2" points="28.64 14.12 29 13.57 30.89 14.54 30.53 15.09 28.64 14.12"/><rect class="cls-2" x="28.2" y="15.55" width="2.18" height="0.64"/><polygon class="cls-2" points="33.66 13.87 34.75 12.2 35.38 12.52 34.29 14.19 33.66 13.87"/><polygon class="cls-2" points="34.67 14.53 36.56 13.56 36.92 14.12 35.03 15.09 34.67 14.53"/><rect class="cls-2" x="35.17" y="15.55" width="2.18" height="0.64"/><path class="cls-2" d="M40.49,24.83V23a.27.27,0,0,0-.06-.17l-4.53-6a.36.36,0,0,0-.3-.15h-.86V16A1.66,1.66,0,0,0,33,14.4h-.42A1.67,1.67,0,0,0,30.81,16h0v.76H26.92V15a.34.34,0,0,0-.36-.32H9.61a.34.34,0,0,0-.36.32V26.74H8.48a.34.34,0,0,0-.36.32v2a.34.34,0,0,0,.36.32h3.73a3.27,3.27,0,0,0,4,1.89,3,3,0,0,0,2.13-1.89h12a3.29,3.29,0,0,0,4,1.89,3,3,0,0,0,2.12-1.89h3.74a.34.34,0,0,0,.36-.32v-2l.09-2a.31.31,0,0,0-.1-.24Zm-9-8.88a1,1,0,0,1,1-.91H33A1,1,0,0,1,34,16v.76H31.54ZM10,15.34H26.2V16H10Zm0,1.29H26.2V26.74H17.69l-.07-.07-.11-.11-.15-.12-.12-.09-.15-.11L17,26.17l-.18-.08L16.64,26,16.46,26l-.14-.05-.21,0-.13,0-.24,0h-.12a2.89,2.89,0,0,0-.72,0h-.11l-.24,0-.14,0-.2,0-.14.05-.19.07-.14.07-.17.08-.13.08-.16.11-.12.09-.15.12-.11.11-.07.06H10Zm2.41,10.78a2.4,2.4,0,0,0-.11.23h0a2.76,2.76,0,0,0-.08.27s0,.05,0,.07,0,.14,0,.21v.08a1.31,1.31,0,0,0,0,.28v.17H8.87V27.38h3.5ZM17.69,29a2.46,2.46,0,0,1-2.91,1.7A2.34,2.34,0,0,1,12.86,29a2,2,0,0,1,0-.43,1.34,1.34,0,0,1,0-.35,2.07,2.07,0,0,1,.46-1,2.66,2.66,0,0,1,2.79-.77A2.59,2.59,0,0,1,17,27a1.8,1.8,0,0,1,.19.2h0A2,2,0,0,1,17.67,29Zm12.76-1.6a2.29,2.29,0,0,0-.1.23h0a1.38,1.38,0,0,0-.08.27.09.09,0,0,0,0,.07,1.55,1.55,0,0,1,0,.21v.08a1.31,1.31,0,0,0,0,.28v.17H18.44v-.17a2.46,2.46,0,0,0,0-.28v-.08a.78.78,0,0,0,0-.21s0-.05,0-.07a2.76,2.76,0,0,0-.08-.27h0l-.11-.24v0H30.45ZM35.77,29a2.45,2.45,0,0,1-2.9,1.7A2.32,2.32,0,0,1,31,29a2,2,0,0,1-.05-.43,2,2,0,0,1,0-.35,2.07,2.07,0,0,1,.46-1,2.67,2.67,0,0,1,2.8-.77,2.59,2.59,0,0,1,.94.55l.19.2h0A2,2,0,0,1,35.76,29Zm4-.27H36.51V28.2a.71.71,0,0,0,0-.2v-.08a1.29,1.29,0,0,0-.08-.26h0l-.1-.24v0h3.52Zm0-2H38.25l.07-1.37h1.44Zm0-2H38a.35.35,0,0,0-.37.32l-.08,1.7H35.78l-.07-.07-.11-.1-.15-.12-.12-.09-.16-.11L35,26.17l-.17-.08L34.73,26,34.54,26l-.14-.05-.2,0-.14,0-.23,0h-.12a2.89,2.89,0,0,0-.72,0h-.12a1.6,1.6,0,0,0-.23,0l-.14,0-.21,0-.14.05L32,26l-.14.07-.18.08-.13.08-.15.11-.12.09-.15.12-.11.11-.07.06h-4V17.35h8.47l4.34,5.78Z"/></g></g></svg>