<svg xmlns="http://www.w3.org/2000/svg" viewBox="0 0 48.69 43.2"><defs><style>.cls-1{fill:#f4f7fa;}.cls-2{fill:#333;}</style></defs><g id="Layer_2" data-name="Layer 2"><g id="Layer_1-2" data-name="Layer 1"><ellipse class="cls-1" cx="24.35" cy="21.6" rx="24.35" ry="21.6"/><path class="cls-2" d="M24.35,2.81a7.66,7.66,0,0,0-7.58,7.74v8.68a.54.54,0,1,0,1.08,0V10.55a6.5,6.5,0,1,1,13,0v8.68a.54.54,0,1,0,1.08,0V10.55A7.65,7.65,0,0,0,24.35,2.81ZM23.8,33.29V34.9H17.31V32.12a.54.54,0,1,0-1.08,0V34.9h-2.7V27.7a6,6,0,0,1,4.87-6v4.43a1.62,1.62,0,1,0,1.08,0V21.62a.56.56,0,0,0,0-1.11,7.12,7.12,0,0,0-7,7.19v7.75A.55.55,0,0,0,13,36H35.71a.55.55,0,0,0,.54-.55V27.7a7.11,7.11,0,0,0-7-7.19.55.55,0,0,0,0,1.11v3.93a2.74,2.74,0,0,0-2.17,2.7v.56a.54.54,0,1,0,1.08,0v-.56a1.63,1.63,0,1,1,3.25,0v.56a.54.54,0,1,0,1.08,0v-.56a2.75,2.75,0,0,0-2.16-2.7V21.72a6,6,0,0,1,4.87,6v7.2H32.46V32.12a.54.54,0,1,0-1.08,0V34.9H24.89V33.31l2.68-12.07a.57.57,0,0,0,0-.18V18.13a5,5,0,0,0,1.62-3.7V11.11a.55.55,0,0,0-.54-.56H27.6a1.92,1.92,0,0,1-1.66-1.28.54.54,0,0,0-.54-.38.57.57,0,0,0-.49.38,1.88,1.88,0,0,1-1.64,1.28H20a.55.55,0,0,0-.54.56v3.32a5,5,0,0,0,1.62,3.7v2.93a.53.53,0,0,0,0,.13Zm1.83-22.73a2.55,2.55,0,0,0,2,.9h.49v2.28a3.33,3.33,0,0,1-3.5,3.17,3.33,3.33,0,0,1-3.5-3.17V11.46h2.5A2.52,2.52,0,0,0,25.63,10.56Zm-3.45,8.32a4.83,4.83,0,0,0,2.17.53,4.76,4.76,0,0,0,2.16-.53v2.05a2.19,2.19,0,0,1-2.16,1.24,2.21,2.21,0,0,1-2.17-1.24Zm3.92,4-1.75,7.87L22.6,22.87a3.94,3.94,0,0,0,3.5,0Zm-7.16,4.28a.54.54,0,0,1,.54.55.53.53,0,0,1-.54.55.53.53,0,0,1-.54-.55A.53.53,0,0,1,18.94,27.15Z"/></g></g></svg>