<svg xmlns="http://www.w3.org/2000/svg" viewBox="0 0 48.69 43.2"><defs><style>.cls-1,.cls-2{fill:#fff;}.cls-1{opacity:0.2;}</style></defs><g id="Layer_2" data-name="Layer 2"><g id="Layer_1-2" data-name="Layer 1"><ellipse class="cls-1" cx="24.35" cy="21.6" rx="24.35" ry="21.6"/><path class="cls-2" d="M16.6,16.59H14.18a.36.36,0,0,0-.38.34v2.14a.36.36,0,0,0,.38.33H16.6a.36.36,0,0,0,.38-.33V16.93A.36.36,0,0,0,16.6,16.59Zm-.39,2.14H14.57V17.26h1.64Z"/><path class="cls-2" d="M16.6,12.62H14.18a.37.37,0,0,0-.38.34V15.1a.36.36,0,0,0,.38.34H16.6A.36.36,0,0,0,17,15.1V13A.37.37,0,0,0,16.6,12.62Zm-.39,2.14H14.57V13.3h1.64Z"/><path class="cls-2" d="M16.6,20.55H14.18a.36.36,0,0,0-.38.34V23a.36.36,0,0,0,.38.34H16.6A.36.36,0,0,0,17,23V20.89A.36.36,0,0,0,16.6,20.55Zm-.39,2.14H14.57V21.23h1.64Z"/><path class="cls-2" d="M16.6,24.51H14.18a.36.36,0,0,0-.38.34V27a.36.36,0,0,0,.38.34H16.6A.36.36,0,0,0,17,27V24.85A.36.36,0,0,0,16.6,24.51Zm-.39,2.14H14.57V25.19h1.64Z"/><path class="cls-2" d="M37.45,22.75a.36.36,0,0,0,.38-.34V17.56a.37.37,0,0,0-.38-.34H32.89V11.14a.36.36,0,0,0-.38-.34H12.57a.36.36,0,0,0-.38.34V30.07h-.95a.36.36,0,0,0-.38.34v1.65a.36.36,0,0,0,.38.34H37.45a.36.36,0,0,0,.38-.34V30.41a.36.36,0,0,0-.38-.34h-.51V22.75ZM18.59,11.48H32.13v5.74H22.19a.37.37,0,0,0-.38.34v4.85a.36.36,0,0,0,.38.34h1.32V27a.39.39,0,0,0,.77,0V22.75H36.17v.5l-5.88,1.93a.32.32,0,0,0-.22.43.38.38,0,0,0,.36.23.31.31,0,0,0,.13,0L36.17,24V25.6L33,26.67a.33.33,0,0,0-.22.44.37.37,0,0,0,.35.22l.14,0,2.88-1v1.5l-1.65.57a.33.33,0,0,0-.21.44.37.37,0,0,0,.35.22l.14,0,1.37-.48v1.51H18.59Zm-5.64,0h4.88V30.07H13ZM37.07,30.74v1H11.63v-1ZM22.58,22.07V17.9H37.07v4.17Z"/><path class="cls-2" d="M23.9,27.7a.36.36,0,0,0-.39.34v.6a.39.39,0,0,0,.77,0V28A.36.36,0,0,0,23.9,27.7Z"/><path class="cls-2" d="M35.78,19.21H35v-.67a.36.36,0,0,0-.38-.34h-1a.36.36,0,0,0-.38.34v.67h-.76a.36.36,0,0,0-.38.34v.88a.37.37,0,0,0,.38.34h.76v.67a.36.36,0,0,0,.38.34h1a.36.36,0,0,0,.38-.34v-.67h.76a.37.37,0,0,0,.38-.34v-.88A.36.36,0,0,0,35.78,19.21Zm-.38.88h-.76a.36.36,0,0,0-.38.34v.67H34v-.67a.36.36,0,0,0-.38-.34h-.76v-.2h.76a.37.37,0,0,0,.38-.34v-.68h.23v.68a.37.37,0,0,0,.38.34h.76Z"/><path class="cls-2" d="M29,25.6l-.72.24a.33.33,0,0,0-.22.43.39.39,0,0,0,.36.23.31.31,0,0,0,.13,0l.71-.23a.34.34,0,0,0,.23-.44A.4.4,0,0,0,29,25.6Z"/><path class="cls-2" d="M24.15,15.76h2.42a.36.36,0,0,0,.38-.34V13.28a.36.36,0,0,0-.38-.34H24.15a.36.36,0,0,0-.38.34v2.14A.36.36,0,0,0,24.15,15.76Zm.39-2.14h1.64v1.46H24.54Z"/><path class="cls-2" d="M22.86,15.42V13.28a.36.36,0,0,0-.38-.34H20.07a.36.36,0,0,0-.38.34v2.14a.36.36,0,0,0,.38.34h2.41A.36.36,0,0,0,22.86,15.42Zm-.76-.34H20.45V13.62H22.1Z"/><path class="cls-2" d="M28.24,15.76h2.41a.36.36,0,0,0,.38-.34V13.28a.36.36,0,0,0-.38-.34H28.24a.36.36,0,0,0-.38.34v2.14A.36.36,0,0,0,28.24,15.76Zm.38-2.14h1.65v1.46H28.62Z"/></g></g></svg>