<svg xmlns="http://www.w3.org/2000/svg" viewBox="0 0 48.69 43.2"><defs><style>.cls-1{fill:#f4f7fa;}.cls-2{fill:#333;fill-rule:evenodd;}</style></defs><g id="Layer_2" data-name="Layer 2"><g id="Layer_1-2" data-name="Layer 1"><ellipse class="cls-1" cx="24.35" cy="21.6" rx="24.35" ry="21.6"/><path class="cls-2" d="M37.09,13.13l-.18,10.28c-.11,6.5-6.73,9.52-12.56,11.87-5.8-2.35-12.41-5.37-12.53-11.87L11.6,13.13c5.91-.63,8.6-1.36,12.75-5.21C28.53,11.8,31.26,12.5,37.09,13.13ZM17.36,19.89h5.08V15.38h3.85v4.51h5.08v3.42H26.29v4.51H22.44V23.31H17.36Zm7-9.88c-3.18,2.79-6.69,3.88-11.11,4.38l.19,9c.11,5.5,6,8.35,10.92,10.31,4.93-2,10.84-4.81,10.95-10.31l.15-9C31.08,13.89,27.56,12.8,24.35,10Z"/></g></g></svg>