<svg xmlns="http://www.w3.org/2000/svg" viewBox="0 0 37.02 32.84"><defs><style>.cls-1{fill:#ecf2f6;}</style></defs><g id="Layer_2" data-name="Layer 2"><g id="Layer_1-2" data-name="Layer 1"><path class="cls-1" d="M0,16.42c0,9.07,8.29,16.42,18.51,16.42S37,25.49,37,16.42,28.73,0,18.51,0,0,7.35,0,16.42Zm35.76,0c0,8.44-7.74,15.3-17.25,15.3S1.26,24.86,1.26,16.42,9,1.12,18.51,1.12,35.76,8,35.76,16.42Z"/><path class="cls-1" d="M8.43,16.11s-.11.1-.11.16h0a.33.33,0,0,0,0,.17s0,.13,0,.16h0a.62.62,0,0,0,.11.17l5.61,5a.6.6,0,0,0,.79,0,.45.45,0,0,0,0-.7l-4.64-4.11h18a.56.56,0,0,0,.56-.5.55.55,0,0,0-.56-.5h-18l4.64-4.11a.49.49,0,0,0,.15-.37.47.47,0,0,0-.15-.36.6.6,0,0,0-.79,0Z"/></g></g></svg>