<svg xmlns="http://www.w3.org/2000/svg" viewBox="0 0 37.02 32.84"><defs><style>.cls-1{fill:#255ed6;}</style></defs><g id="Layer_2" data-name="Layer 2"><g id="Layer_1-2" data-name="Layer 1"><path class="cls-1" d="M37,16.42C37,7.35,28.73,0,18.51,0S0,7.35,0,16.42,8.29,32.84,18.51,32.84,37,25.49,37,16.42Zm-35.76,0C1.26,8,9,1.12,18.51,1.12S35.76,8,35.76,16.42,28,31.72,18.51,31.72,1.26,24.86,1.26,16.42Z"/><path class="cls-1" d="M28.59,16.74s.11-.1.11-.17h0a.3.3,0,0,0,0-.16s0-.14,0-.17h0l-.11-.17L23,11.1a.6.6,0,0,0-.79,0,.44.44,0,0,0,0,.69l4.64,4.12h-18a.5.5,0,1,0,0,1h18L22.19,21a.47.47,0,0,0-.15.36.49.49,0,0,0,.15.37.6.6,0,0,0,.79,0Z"/></g></g></svg>