<svg xmlns="http://www.w3.org/2000/svg" viewBox="0 0 22.21 19.71"><defs><style>.cls-1{opacity:0.5;}.cls-2{fill:#1f2e50;}</style></defs><g id="Layer_2" data-name="Layer 2"><g class="cls-1"><g id="Layer_1-2" data-name="Layer 1"><path class="cls-2" d="M22.21,9.85c0-5.44-5-9.85-11.1-9.85S0,4.41,0,9.85s5,9.86,11.11,9.86S22.21,15.29,22.21,9.85ZM.76,9.85C.76,4.79,5.4.67,11.11.67S21.45,4.79,21.45,9.85,16.81,19,11.11,19,.76,14.91.76,9.85Z"/><path class="cls-2" d="M17.15,10s.07-.06.07-.1h0a.22.22,0,0,0,0-.1s0-.08,0-.1h0a.43.43,0,0,0-.07-.1l-3.36-3a.35.35,0,0,0-.47,0,.26.26,0,0,0,0,.42L16.1,9.54H5.31a.3.3,0,1,0,0,.6H16.1l-2.78,2.47a.31.31,0,0,0,0,.44.35.35,0,0,0,.47,0Z"/></g></g></g></svg>