<svg xmlns="http://www.w3.org/2000/svg" viewBox="0 0 13.43 10.92"><defs><style>.cls-1{fill:#cecece;}</style></defs><g id="Layer_2" data-name="Layer 2"><g id="Layer_1-2" data-name="Layer 1"><path class="cls-1" d="M12.87,4H.56a.53.53,0,0,0-.56.5V7.93a.53.53,0,0,0,.56.5H2.24V7h9V8.43h1.68a.53.53,0,0,0,.56-.5V4.47A.53.53,0,0,0,12.87,4ZM9,5.71a.53.53,0,0,1-.56-.5.56.56,0,0,1,1.12,0A.53.53,0,0,1,9,5.71Zm1.68,0a.53.53,0,0,1-.56-.5.57.57,0,0,1,1.12,0A.53.53,0,0,1,10.63,5.71Z"/><path class="cls-1" d="M3.08,8.43v2a.53.53,0,0,0,.56.49H9.79a.53.53,0,0,0,.56-.49V7.69H3.08Z"/><path class="cls-1" d="M10.35,1.74H9.23A.8.8,0,0,1,8.39,1V0H3.64a.53.53,0,0,0-.56.5v3h7.27Z"/><path class="cls-1" d="M9.23,1.24h1.12L9,0V1A.27.27,0,0,0,9.23,1.24Z"/></g></g></svg>