<svg xmlns="http://www.w3.org/2000/svg" viewBox="0 0 10.01 11.91"><defs><style>.cls-1{fill:#cecece;}</style></defs><g id="Layer_2" data-name="Layer 2"><g id="Layer_1-2" data-name="Layer 1"><path class="cls-1" d="M5,11.91,1.83,8.09l-.54-.67A4.17,4.17,0,0,1,0,4.44,4.75,4.75,0,0,1,5,0a4.75,4.75,0,0,1,5,4.44A4.13,4.13,0,0,1,8.78,7.36Zm-3-7.47A2.81,2.81,0,0,0,5,7.06,2.8,2.8,0,0,0,8,4.44,2.8,2.8,0,0,0,5,1.82,2.81,2.81,0,0,0,2.05,4.44Zm1.62,0A1.26,1.26,0,0,0,5,5.62,1.26,1.26,0,0,0,6.34,4.44,1.27,1.27,0,0,0,5,3.26,1.27,1.27,0,0,0,3.67,4.44Z"/></g></g></svg>