<svg xmlns="http://www.w3.org/2000/svg" viewBox="0 0 13.43 9.12"><defs><style>.cls-1{fill:#cecece;}</style></defs><g id="Layer_2" data-name="Layer 2"><g id="Layer_1-2" data-name="Layer 1"><path class="cls-1" d="M.35,1.3,6.26,4.93a.89.89,0,0,0,.92,0l5.9-3.63a.69.69,0,0,0,.35-.59A.76.76,0,0,0,12.62,0H.81A.76.76,0,0,0,0,.71H0A.7.7,0,0,0,.35,1.3Z"/><path class="cls-1" d="M12.62,2.81,7.18,6.15a.89.89,0,0,1-.92,0L.81,2.81A.52.52,0,0,0,0,3.19V8.4a.77.77,0,0,0,.81.72h11.8a.77.77,0,0,0,.81-.72V3.17A.51.51,0,0,0,12.62,2.81Z"/></g></g></svg>