<svg xmlns="http://www.w3.org/2000/svg" viewBox="0 0 29.2 24.63"><defs><style>.cls-1{opacity:0.5;}.cls-2{fill:#fff;}</style></defs><g id="Layer_2" data-name="Layer 2"><g class="cls-1"><g id="Layer_1-2" data-name="Layer 1"><path class="cls-2" d="M6.45,24.63a7.16,7.16,0,0,1-2-.28c-3.38-1-5.23-4.21-4.13-7.21l2.33-6.36,1.07.31L1.39,17.45C.48,19.92,2,22.59,4.8,23.4a5.88,5.88,0,0,0,4.05-.28,4.9,4.9,0,0,0,2.65-2.74l2.25-6.14,1.07.31-2.25,6.13A5.89,5.89,0,0,1,9.36,24,7.11,7.11,0,0,1,6.45,24.63Z"/><path class="cls-2" d="M14.63,14l-.18,0a.48.48,0,0,1-.36-.63l2.26-6.15c.91-2.47-.62-5.14-3.41-5.95a5.49,5.49,0,0,0-6.7,3L4,10.49a.58.58,0,0,1-.71.32.5.5,0,0,1-.37-.63L5.17,4C6.27,1,9.91-.7,13.29.28s5.23,4.21,4.13,7.21l-2.26,6.15A.57.57,0,0,1,14.63,14Z"/><path class="cls-2" d="M14.46,14.43l-.18,0L3.1,11.17a.49.49,0,0,1-.36-.63.59.59,0,0,1,.71-.32l11.18,3.24a.48.48,0,0,1,.36.63A.54.54,0,0,1,14.46,14.43Z"/><path class="cls-2" d="M4.85,22.69a.7.7,0,0,1-.25-.05c-3.3-1.42-3-4.06-2.45-5.29l1.83-5A.59.59,0,0,1,4.69,12a.49.49,0,0,1,.36.63L3.19,17.73c0,.11-1.26,2.65,1.9,4a.47.47,0,0,1,.26.67A.57.57,0,0,1,4.85,22.69Z"/><path class="cls-2" d="M19.38,19.32a30.37,30.37,0,0,1-4.93-.38.5.5,0,0,1-.44-.58.55.55,0,0,1,.65-.4,30.08,30.08,0,0,0,4.72.36h0c5.31,0,8.7-1.21,8.7-2s-3.39-2-8.7-2a30.53,30.53,0,0,0-3.38.18.56.56,0,0,1-.63-.44.51.51,0,0,1,.49-.55,30.78,30.78,0,0,1,3.52-.19c4.88,0,9.82,1,9.82,3s-4.94,3-9.82,3Z"/><path class="cls-2" d="M19.38,23.31a23.6,23.6,0,0,1-6.6-.82.49.49,0,0,1-.31-.65.6.6,0,0,1,.74-.28,22.57,22.57,0,0,0,6.17.75c5.31,0,8.7-1.21,8.7-2V16.69a.56.56,0,0,1,1.12,0v3.58C29.2,22.26,24.26,23.31,19.38,23.31Z"/><path class="cls-2" d="M16.64,18a.57.57,0,0,1-.51-.29.48.48,0,0,1,.28-.67l5.87-2.39a.59.59,0,0,1,.75.24.49.49,0,0,1-.27.67L16.88,18A.69.69,0,0,1,16.64,18Z"/></g></g></g></svg>